# xmcd
#
# Track frame offsets:
#	150
#	3879
#	21179
#	25454
#	39160
#	43310
#	65617
#	78292
#	92072
#	103760
#	128885
#	132650
#	155845
#	171743
#	188014
#	200587
#
# Disc length: 2728 seconds
# Revision: 0
# Processed by: cddbd v1.5.2PL0 Copyright (c) Steve Scherf et al.
# Submitted via: dBpowerAMP V12.0
#
DISCID=e10aa610
DTITLE=Lightnin' Hopkins - Free Form Patterns
DYEAR=2014
DGENRE=Texas Blues
TTITLE0=Chat 1 - I'd Like To Get In Tune With The Boys
TTITLE1=Song 1 - Give Me Time To Think
TTITLE2=Chat 2 - Harmonica Players
TTITLE3=Song 2 - Miniskirt
TTITLE4=Chat 3 - Lelan: Is Billy A Hippy?
TTITLE5=Song 3 - Got Her Letter This Morning
TTITLE6=Chat 4 - Drinking Chat 1: No No, I Don`t Fool With Nothin' But What I Fool With
TTITLE7=Song 4 - Mixed Up (Previously Unreleased)
TTITLE8=Chat 5 - Band Direction - Billy
TTITLE9=Song 5 - (Mr. Dillon's) Grocery Store Blues
TTITLE10=Chat 6 - You Know Mr. Dillon?
TTITLE11=Fox Chase False Starts - Band Direction
TTITLE12=Song 6 - Fox Chase
TTITLE13=Chat 7 - Drinking Chat 2 - I'm The Best Person In The World When I'm Drinking
TTITLE14=Song 7 - Lord Have Mercy (Previously Unreleased)
TTITLE15=Chat 8 - Drinking Chat 3 - Don't Think It Ain't Got Something In It
EXTD=
EXTT0=
EXTT1=
EXTT2=
EXTT3=
EXTT4=
EXTT5=
EXTT6=
EXTT7=
EXTT8=
EXTT9=
EXTT10=
EXTT11=
EXTT12=
EXTT13=
EXTT14=
EXTT15=
PLAYORDER=
